<svg width="242" height="58" viewBox="0 0 242 58" fill="none" xmlns="http://www.w3.org/2000/svg">
<path fill-rule="evenodd" clip-rule="evenodd" d="M127.079 0.229614V26.2475C129.569 22.3778 133.599 20.4424 139.175 20.4424C142.307 20.4424 145.129 21.2114 147.64 22.7506C150.152 24.2891 152.134 26.4816 153.585 29.3249C155.037 32.1696 155.761 35.4563 155.761 39.1859C155.761 42.5428 155.047 45.6446 153.62 48.4876C152.192 51.3324 150.175 53.629 147.571 55.3771C144.969 57.1249 142.055 58 138.829 58C136.249 58 133.91 57.4865 131.815 56.4611C129.717 55.4361 128.071 53.9675 126.872 52.0552L126.802 56.8807H119.13V0.229614H127.079ZM48.0648 11.0705L61.2444 24.7673C62.7611 26.061 64.0549 27.6127 65.1205 29.4291C66.8021 32.2975 67.643 35.5496 67.643 39.1859C67.643 42.59 66.8587 45.7145 65.2931 48.5579C63.7261 51.4022 61.5146 53.688 58.6585 55.412C55.8008 57.1357 52.5991 58 49.0516 58C45.6411 58 42.531 57.2182 39.7208 55.6573C36.91 54.0957 34.6637 51.8686 32.9821 48.9774C31.2998 46.0869 30.4598 42.823 30.4598 39.1859C30.4598 35.8287 31.2428 32.7289 32.8094 29.8849C34.3751 27.0402 36.5869 24.7558 39.4447 23.0307C41.7614 21.6316 44.3058 20.7996 47.078 20.535L37.9632 11.0705H48.0648ZM95.1502 20.4424C99.342 20.4424 102.556 21.7361 104.791 24.3244C107.026 26.9123 108.143 30.6308 108.143 35.4794V56.8807H100.195V36.948C100.195 33.7784 99.6078 31.4224 98.433 29.8849C97.2579 28.3457 95.4489 27.5761 93.0074 27.5761C90.3347 27.5761 88.2609 28.462 86.7868 30.2343C85.3117 32.0065 84.5756 34.4771 84.5756 37.6478V56.8807H76.6275V21.5621H84.2297L84.2991 26.1071C85.2668 24.2891 86.6943 22.8907 88.5841 21.9114C90.4728 20.9322 92.6619 20.4424 95.1502 20.4424ZM183.269 20.4424C187.461 20.4424 190.674 21.7361 192.91 24.3244C195.144 26.9123 196.262 30.6308 196.262 35.4794V56.8807H188.314V36.948C188.314 33.7784 187.727 31.4224 186.551 29.8849C185.376 28.3457 183.568 27.5761 181.126 27.5761C178.454 27.5761 176.38 28.462 174.906 30.2343C173.431 32.0065 172.694 34.4771 172.694 37.6478V56.8807H164.746V21.5621H172.349L172.417 26.1071C173.385 24.2891 174.812 22.8907 176.703 21.9114C178.592 20.9322 180.781 20.4424 183.269 20.4424ZM215.199 0.229614V35.13L229.298 21.5621H239.251L222.525 37.1583L241.876 56.8807H231.371L215.199 40.096V56.8807H207.25V0.229614H215.199ZM20.7309 0.823521C22.0451 0.823521 23.3925 0.950035 24.7755 1.20137C26.1571 1.45338 27.3242 1.80918 28.2758 2.26708L27.4603 8.87026C25.5112 8.13763 23.5404 7.77029 21.5471 7.77029C19.0543 7.77029 17.241 8.59552 16.1091 10.2463C14.9755 11.8971 14.4097 14.5105 14.4097 18.0872V22.1455H24.3334V28.8178H14.4097V56.8807H6.59333V28.8178H0V22.1455H6.59333V17.2619C6.59333 11.9887 7.80467 7.93073 10.2297 5.08737C12.653 2.24503 16.154 0.823521 20.7309 0.823521ZM49.0516 27.646C45.9636 27.646 43.4293 28.7195 41.4487 30.8628C39.4671 33.0084 38.4773 35.7826 38.4773 39.1859C38.4773 42.59 39.455 45.376 41.4142 47.5437C43.3723 49.7124 45.9173 50.7965 49.0516 50.7965C52.1842 50.7965 54.7295 49.7124 56.6887 47.5437C58.6465 45.376 59.6262 42.59 59.6262 39.1859C59.6262 35.7826 58.6347 33.0084 56.6541 30.8628C54.6722 28.7195 52.1379 27.646 49.0516 27.646ZM137.171 27.646C134.036 27.646 131.492 28.7303 129.533 30.898C127.574 33.0668 126.596 35.8528 126.596 39.2558C126.596 42.6598 127.586 45.435 129.569 47.5786C131.547 49.7243 134.082 50.7965 137.171 50.7965C140.256 50.7965 142.79 49.7243 144.773 47.5786C146.754 45.435 147.745 42.6598 147.745 39.2558C147.745 35.8528 146.766 33.0668 144.807 30.898C142.848 28.7303 140.303 27.646 137.171 27.646Z" fill="white"/>
</svg>
