<svg width="102" height="128" viewBox="0 0 102 128" fill="none" xmlns="http://www.w3.org/2000/svg">
<path fill-rule="evenodd" clip-rule="evenodd" d="M50.8993 107.695C33.7099 107.695 19.7249 93.5698 19.7249 76.2077C19.7249 58.8452 33.7099 44.7202 50.8993 44.7202C58.9807 44.7202 66.353 47.8435 71.8972 52.9563L72.9079 53.9777L72.9322 53.9531C78.5771 59.6547 82.0733 67.5265 82.0733 76.2077C82.0733 93.5698 68.0883 107.695 50.8993 107.695ZM85.5528 38.557L47.3792 0H19.4674L44.4256 25.2089C19.3716 28.4214 0 50.0293 0 76.2077C0 104.601 22.7884 127.618 50.8993 127.618C79.0103 127.618 101.798 104.601 101.798 76.2077C101.798 61.337 95.5453 47.9443 85.5528 38.557Z" fill="white"/>
</svg>
