<svg width="546" height="130" viewBox="0 0 546 130" fill="none" xmlns="http://www.w3.org/2000/svg">
<path fill-rule="evenodd" clip-rule="evenodd" d="M286.716 0.514648V58.8307C292.332 50.1572 301.426 45.8193 314.007 45.8193C321.074 45.8193 327.44 47.5427 333.106 50.9926C338.772 54.4411 343.245 59.3552 346.517 65.7283C349.794 72.1043 351.428 79.471 351.428 87.8305C351.428 95.3546 349.817 102.307 346.597 108.679C343.374 115.055 338.825 120.203 332.95 124.121C327.079 128.039 320.504 130 313.226 130C307.404 130 302.127 128.849 297.4 126.551C292.667 124.253 288.953 120.962 286.248 116.675L286.091 127.491H268.782V0.514648H286.716ZM108.444 24.8132L138.18 55.513C141.602 58.4125 144.521 61.8906 146.925 65.9617C150.719 72.391 152.616 79.6801 152.616 87.8305C152.616 95.4602 150.846 102.464 147.314 108.837C143.779 115.212 138.789 120.335 132.345 124.199C125.898 128.063 118.674 130 110.67 130C102.975 130 95.9584 128.248 89.6181 124.749C83.2763 121.249 78.2081 116.257 74.4141 109.777C70.6185 103.298 68.7234 95.9825 68.7234 87.8305C68.7234 80.3057 70.49 73.358 74.0246 66.9834C77.557 60.6073 82.5473 55.4872 88.995 51.6206C94.2221 48.4846 99.9626 46.6198 106.217 46.0268L85.6524 24.8132H108.444ZM214.678 45.8193C224.135 45.8193 231.387 48.7188 236.429 54.5201C241.471 60.3207 243.993 68.6552 243.993 79.5227V127.491H226.061V82.8145C226.061 75.7101 224.735 70.4296 222.084 66.9834C219.433 63.5335 215.352 61.8085 209.843 61.8085C203.813 61.8085 199.134 63.7942 195.808 67.7665C192.48 71.7387 190.819 77.2762 190.819 84.3829V127.491H172.887V48.3288H190.039L190.196 58.5159C192.379 54.4411 195.6 51.3066 199.863 49.1118C204.125 46.917 209.064 45.8193 214.678 45.8193ZM413.491 45.8193C422.949 45.8193 430.199 48.7188 435.244 54.5201C440.284 60.3207 442.807 68.6552 442.807 79.5227V127.491H424.873V82.8145C424.873 75.7101 423.549 70.4296 420.897 66.9834C418.246 63.5335 414.165 61.8085 408.656 61.8085C402.627 61.8085 397.948 63.7942 394.622 67.7665C391.294 71.7387 389.633 77.2762 389.633 84.3829V127.491H371.699V48.3288H388.853L389.008 58.5159C391.191 54.4411 394.412 51.3066 398.676 49.1118C402.939 46.917 407.877 45.8193 413.491 45.8193ZM485.532 0.514648V78.7397L517.341 48.3288H539.797L502.061 83.2859L545.721 127.491H522.019L485.532 89.8702V127.491H467.598V0.514648H485.532ZM46.773 1.84582C49.7382 1.84582 52.7782 2.12939 55.8985 2.69272C59.0156 3.25757 61.6488 4.05506 63.7958 5.08137L61.9559 19.8816C57.5584 18.2395 53.1117 17.4162 48.6144 17.4162C42.9903 17.4162 38.8991 19.2658 36.3453 22.9659C33.7877 26.6659 32.5112 32.5235 32.5112 40.5402V49.6364H54.901V64.5917H32.5112V127.491H14.8759V64.5917H0V49.6364H14.8759V38.6906C14.8759 26.8712 17.6089 17.7758 23.0802 11.4027C28.5478 5.03196 36.4466 1.84582 46.773 1.84582ZM110.67 61.9651C103.703 61.9651 97.9851 64.3712 93.5165 69.1752C89.0456 73.9844 86.8125 80.2024 86.8125 87.8305C86.8125 95.4602 89.0184 101.705 93.4386 106.563C97.8565 111.424 103.599 113.854 110.67 113.854C117.738 113.854 123.481 111.424 127.901 106.563C132.318 101.705 134.529 95.4602 134.529 87.8305C134.529 80.2024 132.292 73.9844 127.823 69.1752C123.351 64.3712 117.634 61.9651 110.67 61.9651ZM309.484 61.9651C302.413 61.9651 296.672 64.3956 292.251 69.2542C287.832 74.1152 285.626 80.3597 285.626 87.9871C285.626 95.6169 287.859 101.837 292.332 106.642C296.796 111.451 302.515 113.854 309.484 113.854C316.445 113.854 322.163 111.451 326.637 106.642C331.106 101.837 333.343 95.6169 333.343 87.9871C333.343 80.3597 331.132 74.1152 326.713 69.2542C322.294 64.3956 316.552 61.9651 309.484 61.9651Z" fill="#00B74F"/>
</svg>
